<svg width="17" height="19" viewBox="0 0 17 19" fill="none" xmlns="http://www.w3.org/2000/svg">
<path d="M1.09668 18.373C0.874023 18.373 0.680664 18.291 0.516602 18.127C0.358398 17.9688 0.279297 17.7812 0.279297 17.5645V2.97461C0.279297 2.57617 0.370117 2.25684 0.551758 2.0166C0.739258 1.77051 0.985352 1.57715 1.29004 1.43652C1.53027 1.33105 1.76758 1.24316 2.00195 1.17285C2.23633 1.09668 2.50586 1.04102 2.81055 1.00586C3.11523 0.970703 3.49023 0.953125 3.93555 0.953125C4.73242 0.953125 5.47656 1.03223 6.16797 1.19043C6.86523 1.34863 7.54199 1.53613 8.19824 1.75293C8.86035 1.96387 9.52832 2.15137 10.2021 2.31543C10.8818 2.47363 11.6025 2.55273 12.3643 2.55273C13.0732 2.55273 13.6387 2.49707 14.0605 2.38574C14.4824 2.26855 14.8193 2.20996 15.0713 2.20996C15.3701 2.20996 15.6162 2.29492 15.8096 2.46484C16.0088 2.62891 16.1084 2.85449 16.1084 3.1416V11.9043C16.1084 12.3145 16.0176 12.6514 15.8359 12.915C15.6602 13.1729 15.417 13.3721 15.1064 13.5127C14.8779 13.6182 14.6465 13.709 14.4121 13.7852C14.1777 13.8555 13.9053 13.9082 13.5947 13.9434C13.29 13.9785 12.9121 13.9961 12.4609 13.9961C11.6875 13.9961 10.9609 13.917 10.2812 13.7588C9.60156 13.5947 8.93359 13.4072 8.27734 13.1963C7.62695 12.9854 6.95605 12.8008 6.26465 12.6426C5.57324 12.4785 4.8291 12.3965 4.03223 12.3965C3.46387 12.3965 2.99805 12.4463 2.63477 12.5459C2.27148 12.6396 2.03125 12.71 1.91406 12.7568V17.5645C1.91406 17.7871 1.83203 17.9775 1.66797 18.1357C1.50977 18.2939 1.31934 18.373 1.09668 18.373ZM1.94922 8.56445C2.01953 8.43555 2.22168 8.30371 2.55566 8.16895C2.88965 8.02832 3.3584 7.95801 3.96191 7.95801C4.19043 7.95801 4.38086 7.9668 4.5332 7.98438C4.68555 7.99609 4.84668 8.01074 5.0166 8.02832V10.8057C5.6084 10.8584 6.16504 10.9521 6.68652 11.0869C7.20801 11.2158 7.71777 11.3535 8.21582 11.5V8.79297C8.5791 8.91016 8.93066 9.0127 9.27051 9.10059C9.61621 9.18848 9.96484 9.26758 10.3164 9.33789C10.668 9.4082 11.0312 9.46387 11.4062 9.50488V12.2822C11.582 12.3057 11.752 12.3232 11.916 12.335C12.0859 12.3467 12.2588 12.3525 12.4346 12.3525C13.0322 12.3525 13.498 12.2852 13.832 12.1504C14.1719 12.0156 14.377 11.8838 14.4473 11.7549V9.31152C14.1895 9.38184 13.8906 9.44043 13.5508 9.4873C13.2109 9.53418 12.8242 9.55762 12.3906 9.55762C12.2324 9.55762 12.0713 9.55469 11.9072 9.54883C11.749 9.53711 11.582 9.52246 11.4062 9.50488V6.68359C11.582 6.69531 11.7461 6.70703 11.8984 6.71875C12.0566 6.73047 12.2031 6.73633 12.3379 6.73633C12.8066 6.73633 13.2227 6.70996 13.5859 6.65723C13.9551 6.59863 14.2422 6.54004 14.4473 6.48145V3.94141C14.1836 4.01172 13.873 4.07031 13.5156 4.11719C13.1582 4.1582 12.7656 4.17871 12.3379 4.17871C12.1738 4.17871 12.0156 4.17578 11.8633 4.16992C11.7109 4.1582 11.5586 4.14648 11.4062 4.13477V6.68359C10.8613 6.63086 10.3223 6.54297 9.78906 6.41992C9.26172 6.29102 8.7373 6.1416 8.21582 5.97168V3.42285C7.68848 3.27051 7.16406 3.12109 6.64258 2.97461C6.12695 2.82812 5.58496 2.72266 5.0166 2.6582V5.20703C4.84668 5.18359 4.66211 5.16602 4.46289 5.1543C4.26367 5.14258 4.09668 5.13672 3.96191 5.13672C3.3584 5.13672 2.88965 5.20703 2.55566 5.34766C2.22168 5.48242 2.01953 5.61426 1.94922 5.74316V8.56445ZM5.0166 8.02832V5.20703C5.6084 5.27148 6.15625 5.37695 6.66016 5.52344C7.16406 5.66406 7.68262 5.81348 8.21582 5.97168V8.79297C7.64746 8.62891 7.12012 8.47949 6.63379 8.34473C6.14746 8.20996 5.6084 8.10449 5.0166 8.02832Z" fill="#D64BD9"/>
</svg>
