<svg width="19" height="19" viewBox="0 0 19 19" fill="none" xmlns="http://www.w3.org/2000/svg">
<path d="M9.74121 18.7334C8.49902 18.7334 7.33008 18.4961 6.23438 18.0215C5.13867 17.5527 4.17188 16.8994 3.33398 16.0615C2.50195 15.2295 1.84863 14.2656 1.37402 13.1699C0.899414 12.0684 0.662109 10.8965 0.662109 9.6543C0.662109 8.48828 0.873047 7.38672 1.29492 6.34961C1.7168 5.30664 2.2998 4.37793 3.04395 3.56348C3.79395 2.74316 4.66406 2.07812 5.6543 1.56836C6.64453 1.05273 7.71387 0.736328 8.8623 0.619141V9.80371C8.8623 9.93848 8.87695 10.0527 8.90625 10.1465C8.94141 10.2344 9.00586 10.3193 9.09961 10.4014L15.4893 16.6592C14.6807 17.3213 13.7842 17.8311 12.7998 18.1885C11.8154 18.5518 10.7959 18.7334 9.74121 18.7334ZM18.8291 9.6543C18.8291 10.7793 18.624 11.8604 18.2139 12.8975C17.8037 13.9346 17.2441 14.8516 16.5352 15.6484L10.8398 10.0498L18.0029 5.93652C18.2666 6.4873 18.4688 7.08496 18.6094 7.72949C18.7559 8.36816 18.8291 9.00977 18.8291 9.6543ZM10.2598 8.74902V0.592773C11.1973 0.645508 12.1084 0.847656 12.9932 1.19922C13.8779 1.54492 14.6924 2.01953 15.4365 2.62305C16.1807 3.2207 16.8105 3.91211 17.3262 4.69727L10.2598 8.74902Z" fill="#D64BD9"/>
</svg>
